<svg width="1428" height="792" viewBox="0 0 1428 792" fill="none" xmlns="http://www.w3.org/2000/svg">
<rect y="12" width="1440" height="780" fill="url(#paint0_linear_0_28171)"/>
<mask id="mask0_0_28171" style="mask-type:luminance" maskUnits="userSpaceOnUse" x="0" y="0" width="1440" height="780">
<path d="M0 0H1440V780H0V0Z" fill="white"/>
</mask>
<g mask="url(#mask0_0_28171)">
<path fill-rule="evenodd" clip-rule="evenodd" d="M1188 1020C1458.07 1020 1677 801.067 1677 531C1677 260.933 1458.07 42 1188 42C917.933 42 699 260.933 699 531C699 801.067 917.933 1020 1188 1020Z" fill="#1565D8"/>
<path opacity="0.15" fill-rule="evenodd" clip-rule="evenodd" d="M1537 1480C1864.5 1480 2130 1214.5 2130 887C2130 559.495 1864.5 294 1537 294C1209.5 294 944 559.495 944 887C944 1214.5 1209.5 1480 1537 1480ZM1537 1280C1319.95 1280 1144 1104.05 1144 887C1144 669.952 1319.95 494 1537 494C1754.05 494 1930 669.952 1930 887C1930 1104.05 1754.05 1280 1537 1280Z" fill="url(#paint1_linear_0_28171)"/>
<path opacity="0.15" fill-rule="evenodd" clip-rule="evenodd" d="M723 429C1050.5 429 1316 163.505 1316 -164C1316 -491.505 1050.5 -757 723 -757C395.495 -757 130 -491.505 130 -164C130 163.505 395.495 429 723 429ZM723 229C505.952 229 330 53.0479 330 -164C330 -381.048 505.952 -557 723 -557C940.048 -557 1116 -381.048 1116 -164C1116 53.0479 940.048 229 723 229Z" fill="url(#paint2_linear_0_28171)"/>
</g>
<defs>
<linearGradient id="paint0_linear_0_28171" x1="0" y1="12" x2="0" y2="792" gradientUnits="userSpaceOnUse">
<stop stop-color="#FAFBFB" stop-opacity="0.01"/>
<stop offset="1" stop-color="#F8FBFF"/>
</linearGradient>
<linearGradient id="paint1_linear_0_28171" x1="2130" y1="295.581" x2="947.162" y2="295.581" gradientUnits="userSpaceOnUse">
<stop stop-color="white"/>
<stop offset="1" stop-color="white" stop-opacity="0.01"/>
</linearGradient>
<linearGradient id="paint2_linear_0_28171" x1="1316" y1="-755.419" x2="133.162" y2="-755.419" gradientUnits="userSpaceOnUse">
<stop stop-color="white" stop-opacity="0.01"/>
<stop offset="1" stop-color="white"/>
</linearGradient>
</defs>
</svg>
