<svg width="32" height="32" viewBox="0 0 32 32" fill="none" xmlns="http://www.w3.org/2000/svg">
<path fill-rule="evenodd" clip-rule="evenodd" d="M15.2134 6.46869C16.3444 6.46869 17.2613 7.36554 17.2613 8.47186V16.5197C17.2613 16.5197 21.3296 17.2154 25.1099 18.9099C27.63 20.0396 27.63 24.0696 25.1099 31H13.2679C7.82372 26.6378 5.43812 23.7495 6.11104 22.3351C6.78396 20.9207 9.13543 21.1511 13.1654 23.0263V8.47186C13.1654 7.36554 14.0823 6.46869 15.2134 6.46869Z" fill="#1565D8"/>
<path fill-rule="evenodd" clip-rule="evenodd" d="M15.2127 1C19.17 1 22.3781 4.13798 22.3781 8.00887C22.3781 10.603 20.9373 12.8679 18.7958 14.0798L18.7954 8.50951C18.7954 6.57406 17.1914 5.00507 15.2127 5.00507C13.234 5.00507 11.63 6.57406 11.63 8.50951L11.6306 14.0804C9.48847 12.8686 8.04724 10.6034 8.04724 8.00887C8.04724 4.13798 11.2553 1 15.2127 1Z" fill="#B8D0F3"/>
</svg>
